<svg xmlns="http://www.w3.org/2000/svg" viewBox="0 0 150 150">
<!-- SVG created with Arrow, by QuiverAI (https://quiver.ai) -->
  <path d="m96.5 83.7h48.5c0.8-0.1 1.4-0.8 1.5-1.6 0.1-2.3-1.2-3.6-50 1.6z"/>
  <path d="m146.5 67.8c-0.1-0.8-0.8-1.6-1.7-1.6h-48.3l34.5-34.2c0.3-0.4 0.5-1.6 0-2.2-2.9-3.6-6.4-7.1-10.5-10.6-0.5-0.4-1.3-0.5-2-0.2-0.3 0.1-0.6 0.5-0.8 0.7l-34.3 33.5v-47.7c0-1.1-0.8-1.8-1.6-1.8-4.5-0.3-8.8-0.4-13.8 0-0.8 0.1-1.7 0.8-1.7 1.8v47.6l-34.1-33.6c-0.5-0.6-1.3-0.8-2.2-0.5-3.7 2.9-7.3 6.4-11 10.7-0.4 0.6-0.3 1.8 0.1 2.2l23.9 23.5c2.4 2.4 5.8 4.2 10.8 4.7h22.3c7.5-0.2 13.7 6.5 13.9 14.4v21.1c0.2 4 1.8 8.2 5 11.5l22.8 23.1c0.5 0.7 1.4 1 2.5 0.5 3.6-3 7.1-6.2 10.7-10.5 0.5-0.6 0.6-1.9-0.1-2.3l-34.4-34.2h48.5c0.9 0 1.5-1 1.5-1.7 0.4-4.7 0.4-9.4 0-14.2z"/>
  <path d="m75.1 66.2h-69.8c-1 0-1.7 0.7-1.8 1.6-0.4 4.7-0.4 9.5 0.1 14.3 0.1 0.8 0.8 1.6 1.7 1.6h48.4l-34.6 34.3c-0.5 0.4-0.5 1.6-0.1 2.2 2.8 3.5 6.2 6.9 10.5 10.4 0.5 0.4 1.4 0.5 2 0.2l34.8-34.7-0.1 48.1c0 0.8 0.8 1.6 1.6 1.7 4.4 0.4 9.4 0.5 14.4 0 0.8 0 1.6-0.8 1.6-1.7l-0.1-69.5c-0.3-4.6-3.8-8.5-8.6-8.5z"/>
</svg>